<?xml version="1.0" standalone="no"?><svg xmlns="http://www.w3.org/2000/svg" viewBox="0 0 1440 320"><path fill="#a2d9ff" fill-opacity="0.5" d="M0,0L30,53.3C60,107,120,213,180,234.7C240,256,300,192,360,192C420,192,480,256,540,250.7C600,245,660,171,720,154.7C780,139,840,181,900,186.7C960,192,1020,160,1080,149.3C1140,139,1200,149,1260,170.7C1320,192,1380,224,1410,240L1440,256L1440,320L1410,320C1380,320,1320,320,1260,320C1200,320,1140,320,1080,320C1020,320,960,320,900,320C840,320,780,320,720,320C660,320,600,320,540,320C480,320,420,320,360,320C300,320,240,320,180,320C120,320,60,320,30,320L0,320Z"></path></svg>